OS_from_script.mot
version=1
datacolumns 20
datarows 31
range 1.240000 1.540000
inDegrees=yes
endheader
time	pelvis_tilt	pelvis_list	pelvis_rotation	hip_flexion_r	hip_adduction_r	hip_rotation_r	knee_angle_r	ankle_angle_r	hip_flexion_l	hip_adduction_l	hip_rotation_l	knee_angle_l	ankle_angle_l	pelvis_tx	pelvis_ty	pelvis_tz	lumbar_bending	lumbar_rotation	lumbar_extension
1.240000	-0.000000	0.000000	-0.000000	-0.000000	0.000000	-0.000000	-0.000000	-0.000000	-0.000000	0.000000	-0.000000	-0.000000	-0.000000	0.970000	0.000000	0.290000	-0.000000	-0.000000	0.000000
1.250000	-0.000000	0.000000	-0.000000	-0.000000	0.000000	-0.000000	-0.000000	-0.000000	-0.000000	0.000000	-0.000000	-0.000000	-0.000000	0.970000	0.000000	0.290000	-0.000000	-0.000000	0.000000
1.260000	-0.000000	0.000000	-0.000000	-0.000000	0.000000	-0.000000	-0.000000	-0.000000	-0.000000	0.000000	-0.000000	-0.000000	-0.000000	0.970000	0.000000	0.290000	-0.000000	-0.000000	0.000000
1.270000	-0.000000	0.000000	-0.000000	-0.000000	0.000000	-0.000000	-0.000000	-0.000000	-0.000000	0.000000	-0.000000	-0.000000	-0.000000	0.970000	0.000000	0.290000	-0.000000	-0.000000	0.000000
1.280000	-0.000000	0.000000	-0.000000	-0.000000	0.000000	-0.000000	-0.000000	-0.000000	-0.000000	0.000000	-0.000000	-0.000000	-0.000000	0.970000	0.000000	0.290000	-0.000000	-0.000000	0.000000
1.290000	-0.000000	0.000000	-0.000000	-0.000000	0.000000	-0.000000	-0.000000	-0.000000	-0.000000	0.000000	-0.000000	-0.000000	-0.000000	0.970000	0.000000	0.290000	-0.000000	-0.000000	0.000000
1.300000	-0.000000	0.000000	-0.000000	-0.000000	0.000000	-0.000000	-0.000000	-0.000000	-0.000000	0.000000	-0.000000	-0.000000	-0.000000	0.970000	0.000000	0.290000	-0.000000	-0.000000	0.000000
1.310000	-0.000000	0.000000	-0.000000	-0.000000	0.000000	-0.000000	-0.000000	-0.000000	-0.000000	0.000000	-0.000000	-0.000000	-0.000000	0.970000	0.000000	0.290000	-0.000000	-0.000000	0.000000
1.320000	-0.000000	0.000000	-0.000000	-0.000000	0.000000	-0.000000	-0.000000	-0.000000	-0.000000	0.000000	-0.000000	-0.000000	-0.000000	0.970000	0.000000	0.290000	-0.000000	-0.000000	0.000000
1.330000	-0.000000	0.000000	-0.000000	-0.000000	0.000000	-0.000000	-0.000000	-0.000000	-0.000000	0.000000	-0.000000	-0.000000	-0.000000	0.970000	0.000000	0.290000	-0.000000	-0.000000	0.000000
1.340000	-0.000000	0.000000	-0.000000	-0.000000	0.000000	-0.000000	-0.000000	-0.000000	-0.000000	0.000000	-0.000000	-0.000000	-0.000000	0.970000	0.000000	0.290000	-0.000000	-0.000000	0.000000
1.350000	-0.000000	0.000000	-0.000000	-0.000000	0.000000	-0.000000	-0.000000	-0.000000	-0.000000	0.000000	-0.000000	-0.000000	-0.000000	0.970000	0.000000	0.290000	-0.000000	-0.000000	0.000000
1.360000	-0.000000	0.000000	-0.000000	-0.000000	0.000000	-0.000000	-0.000000	-0.000000	-0.000000	0.000000	-0.000000	-0.000000	-0.000000	0.970000	0.000000	0.290000	-0.000000	-0.000000	0.000000
1.370000	-0.000000	0.000000	-0.000000	-0.000000	0.000000	-0.000000	-0.000000	-0.000000	-0.000000	0.000000	-0.000000	-0.000000	-0.000000	0.970000	0.000000	0.290000	-0.000000	-0.000000	0.000000
1.380000	-0.000000	0.000000	-0.000000	-0.000000	0.000000	-0.000000	-0.000000	-0.000000	-0.000000	0.000000	-0.000000	-0.000000	-0.000000	0.970000	0.000000	0.290000	-0.000000	-0.000000	0.000000
1.390000	-0.000000	0.000000	-0.000000	-0.000000	0.000000	-0.000000	-0.000000	-0.000000	-0.000000	0.000000	-0.000000	-0.000000	-0.000000	0.970000	0.000000	0.290000	-0.000000	-0.000000	0.000000
1.400000	-0.000000	0.000000	-0.000000	-0.000000	0.000000	-0.000000	-0.000000	-0.000000	-0.000000	0.000000	-0.000000	-0.000000	-0.000000	0.970000	0.000000	0.290000	-0.000000	-0.000000	0.000000
1.410000	-0.000000	0.000000	-0.000000	-0.000000	0.000000	-0.000000	-0.000000	-0.000000	-0.000000	0.000000	-0.000000	-0.000000	-0.000000	0.970000	0.000000	0.290000	-0.000000	-0.000000	0.000000
1.420000	-0.000000	0.000000	-0.000000	-0.000000	0.000000	-0.000000	-0.000000	-0.000000	-0.000000	0.000000	-0.000000	-0.000000	-0.000000	0.970000	0.000000	0.290000	-0.000000	-0.000000	0.000000
1.430000	-0.000000	0.000000	-0.000000	-0.000000	0.000000	-0.000000	-0.000000	-0.000000	-0.000000	0.000000	-0.000000	-0.000000	-0.000000	0.970000	0.000000	0.290000	-0.000000	-0.000000	0.000000
1.440000	-0.000000	0.000000	-0.000000	-0.000000	0.000000	-0.000000	-0.000000	-0.000000	-0.000000	0.000000	-0.000000	-0.000000	-0.000000	0.970000	0.000000	0.290000	-0.000000	-0.000000	0.000000
1.450000	-0.000000	0.000000	-0.000000	-0.000000	0.000000	-0.000000	-0.000000	-0.000000	-0.000000	0.000000	-0.000000	-0.000000	-0.000000	0.970000	0.000000	0.290000	-0.000000	-0.000000	0.000000
1.460000	-0.000000	0.000000	-0.000000	-0.000000	0.000000	-0.000000	-0.000000	-0.000000	-0.000000	0.000000	-0.000000	-0.000000	-0.000000	0.970000	0.000000	0.290000	-0.000000	-0.000000	0.000000
1.470000	-0.310000	3.800000	-1.040000	31.040000	-3.010000	-4.030000	-61.920000	-1.740000	9.420000	-1.710000	2.600000	-10.440000	3.970000	-1.620000	1.030000	0.330000	-0.000000	-0.000000	0.000000
1.480000	0.600000	3.320000	-1.260000	32.170000	-3.350000	-4.190000	-59.620000	-0.830000	8.940000	-1.620000	2.040000	-9.840000	4.700000	-1.600000	1.030000	0.330000	-0.000000	-0.000000	0.000000
1.490000	1.190000	2.230000	-1.800000	34.480000	-3.210000	-3.790000	-55.290000	-0.210000	8.630000	-0.970000	1.510000	-9.160000	5.810000	-1.590000	1.030000	0.330000	-0.000000	-0.000000	0.000000
1.500000	1.300000	2.050000	-1.900000	35.060000	-3.160000	-3.540000	-53.350000	-0.040000	8.240000	-0.780000	1.470000	-8.870000	6.190000	-1.580000	1.020000	0.330000	-0.000000	-0.000000	0.000000
1.510000	1.470000	1.940000	-1.920000	35.590000	-3.170000	-3.260000	-50.980000	0.190000	7.640000	-0.650000	1.470000	-8.490000	6.590000	-1.570000	1.020000	0.330000	-0.000000	-0.000000	0.000000
1.520000	1.720000	1.880000	-1.850000	36.060000	-3.310000	-2.970000	-48.210000	0.470000	6.860000	-0.630000	1.510000	-8.000000	6.990000	-1.560000	1.020000	0.330000	-0.000000	-0.000000	0.000000
1.530000	2.060000	1.880000	-1.650000	36.450000	-3.600000	-2.680000	-45.110000	0.780000	5.910000	-0.770000	1.590000	-7.400000	7.370000	-1.550000	1.020000	0.330000	-0.000000	-0.000000	0.000000
1.540000	2.470000	1.930000	-1.320000	36.710000	-4.050000	-2.370000	-41.730000	1.100000	4.800000	-1.080000	1.700000	-6.720000	7.720000	-1.540000	1.020000	0.340000	-0.000000	-0.000000	0.000000
